<?xml version="1.0" encoding="UTF-8"?>
<!-- Generator: Adobe Illustrator 16.0.3, SVG Export Plug-In . SVG Version: 6.00 Build 0)  -->
<!DOCTYPE svg PUBLIC "-//W3C//DTD SVG 1.1//EN" "http://www.w3.org/Graphics/SVG/1.1/DTD/svg11.dtd">
<svg version="1.1" id="Layer_1" xmlns="http://www.w3.org/2000/svg" xmlns:xlink="http://www.w3.org/1999/xlink" x="0px" y="0px" width="23.597px" height="23.6px" viewBox="0 0 23.597 23.6" enable-background="new 0 0 23.597 23.6" xml:space="preserve">
<g>
	<g>
		<g>
			<circle fill="#426AB3" cx="11.798" cy="11.8" r="10.037"/>
			<path fill="#426AB3" d="M11.798,23.6C5.293,23.6,0,18.308,0,11.8C0,5.293,5.293,0,11.798,0c6.505,0,11.799,5.293,11.799,11.8     C23.597,18.308,18.303,23.6,11.798,23.6z M11.798,3.523c-4.563,0-8.275,3.712-8.275,8.277c0,4.563,3.712,8.277,8.275,8.277     s8.275-3.714,8.275-8.277C20.074,7.235,16.362,3.523,11.798,3.523z"/>
		</g>
		<g>
			<circle fill="#426AB3" cx="11.799" cy="11.8" r="8.867"/>
			<path fill="#FFFFFF" d="M11.798,21.549c-5.375,0-9.748-4.374-9.748-9.749c0-5.376,4.372-9.75,9.748-9.75     c5.375,0,9.748,4.374,9.748,9.75C21.546,17.175,17.173,21.549,11.798,21.549z M11.798,3.812c-4.403,0-7.986,3.584-7.986,7.988     c0,4.405,3.583,7.987,7.986,7.987s7.986-3.582,7.986-7.987C19.785,7.396,16.202,3.812,11.798,3.812z"/>
		</g>
	</g>
</g>
</svg>