<?xml version="1.0" encoding="utf-8"?>
<!-- Generator: Adobe Illustrator 16.0.3, SVG Export Plug-In . SVG Version: 6.00 Build 0)  -->
<!DOCTYPE svg PUBLIC "-//W3C//DTD SVG 1.1//EN" "http://www.w3.org/Graphics/SVG/1.1/DTD/svg11.dtd">
<svg version="1.1" id="Layer_1" xmlns="http://www.w3.org/2000/svg" xmlns:xlink="http://www.w3.org/1999/xlink" x="0px" y="0px"
	 width="379.79px" height="379.789px" viewBox="111.317 226.884 379.79 379.789"
	 enable-background="new 111.317 226.884 379.79 379.789" xml:space="preserve">
<g>
	<path fill="#426AB3" d="M232.159,504.88c-4.762,0-9.524-1.786-13.096-5.357c-7.143-7.144-7.143-19.05,0-26.788l138.104-138.7
		c7.145-7.144,19.049-7.144,26.789,0c7.738,7.144,7.143,19.049,0,26.788L245.851,499.522
		C241.684,503.094,236.921,504.88,232.159,504.88z"/>
</g>
<g>
	<path fill="#426AB3" d="M370.859,504.88c-4.762,0-9.523-1.786-13.096-5.357l-138.7-138.701c-7.143-7.144-7.143-19.049,0-26.788
		c7.144-7.144,19.049-7.144,26.788,0L383.957,472.14c7.143,7.143,7.143,19.049,0,26.787
		C380.384,503.094,375.623,504.88,370.859,504.88z"/>
</g>
<g>
	<path fill="#426AB3" d="M301.212,606.673c-104.77,0-189.895-85.125-189.895-189.895s85.125-189.895,189.895-189.895
		c104.77,0,189.895,85.125,189.895,189.895S405.982,606.673,301.212,606.673z M301.212,264.386
		c-83.935,0-152.393,68.458-152.393,152.392S217.277,569.17,301.212,569.17c83.934,0,152.391-68.457,152.391-152.392
		S385.146,264.386,301.212,264.386z"/>
</g>
</svg>
