<?xml version="1.0" encoding="utf-8"?>
<!-- Generator: Adobe Illustrator 16.0.3, SVG Export Plug-In . SVG Version: 6.00 Build 0)  -->
<!DOCTYPE svg PUBLIC "-//W3C//DTD SVG 1.1//EN" "http://www.w3.org/Graphics/SVG/1.1/DTD/svg11.dtd">
<svg version="1.1" id="Layer_1" xmlns="http://www.w3.org/2000/svg" xmlns:xlink="http://www.w3.org/1999/xlink" x="0px" y="0px"
	 width="28.35px" height="28.35px" viewBox="0 0 28.35 28.35" enable-background="new 0 0 28.35 28.35" xml:space="preserve">
<g>
	<circle fill="#EF4823" cx="14.173" cy="14.173" r="14.173"/>
	<path fill="#FFFFFF" d="M19.962,14.135c-0.49,0.49-1.292,0.49-1.781,0l-2.748-2.748v8.611c0,0.693-0.565,1.262-1.26,1.26
		c-0.692,0-1.26-0.566-1.26-1.26v-8.612l-2.747,2.748c-0.49,0.49-1.292,0.49-1.782,0c-0.489-0.49-0.489-1.292,0-1.782l4.884-4.883
		c0.004-0.005,0.008-0.011,0.012-0.017c0.177-0.176,0.393-0.286,0.619-0.335c0.008-0.002,0.015-0.005,0.022-0.007
		c0.083-0.017,0.167-0.025,0.251-0.026l0,0l0,0c0.084,0,0.168,0.009,0.25,0.026c0.008,0.001,0.016,0.005,0.022,0.006
		c0.227,0.05,0.442,0.16,0.618,0.335c0.006,0.005,0.009,0.011,0.014,0.017l4.884,4.883C20.452,12.844,20.452,13.645,19.962,14.135z"
		/>
</g>
</svg>
