<?xml version="1.0" encoding="utf-8"?>
<!-- Generator: Adobe Illustrator 16.0.3, SVG Export Plug-In . SVG Version: 6.00 Build 0)  -->
<!DOCTYPE svg PUBLIC "-//W3C//DTD SVG 1.1//EN" "http://www.w3.org/Graphics/SVG/1.1/DTD/svg11.dtd">
<svg version="1.1" id="Layer_1" xmlns="http://www.w3.org/2000/svg" xmlns:xlink="http://www.w3.org/1999/xlink" x="0px" y="0px"
	 width="757.702px" height="757.701px" viewBox="216.424 42.094 757.702 757.701"
	 enable-background="new 216.424 42.094 757.702 757.701" xml:space="preserve">
<path fill="#426AB3" d="M924.699,565.844c-20.408-14.666-46.633-27.766-77.934-38.938c-24.887-8.883-52.67-16.392-82.574-22.344
	c-7.314-1.432-14.32,3.274-15.75,10.523c-1.449,7.266,3.266,14.312,10.523,15.769c28.607,5.691,55.135,12.847,78.775,21.291
	c28.943,10.33,52.93,22.269,71.316,35.461c17.443,12.544,38.264,32.547,38.264,56.667c0,62.157-141.463,128.717-352.045,128.717
	c-210.582,0-352.044-66.56-352.044-128.717c0-24.12,20.812-44.123,38.264-56.667c18.378-13.192,42.372-25.131,71.316-35.461
	c23.648-8.444,50.151-15.608,78.775-21.291c7.257-1.457,11.972-8.503,10.523-15.769c-1.439-7.249-8.419-11.955-15.751-10.523
	c-29.904,5.952-57.687,13.479-82.564,22.344c-31.31,11.172-57.526,24.263-77.942,38.938c-32.337,23.235-49.427,50.345-49.427,78.43
	c0,87.212,166.417,155.522,378.85,155.522c212.426,0,378.852-68.311,378.852-155.522
	C974.126,616.188,957.044,589.079,924.699,565.844z"/>
<path fill="#426AB3" d="M511.911,242.709c0,45.967,37.396,83.355,83.363,83.355c45.967,0,83.364-37.389,83.364-83.355
	c0-45.968-37.396-83.364-83.364-83.364C549.308,159.344,511.911,196.741,511.911,242.709z M651.841,242.709
	c0,31.184-25.375,56.559-56.567,56.559c-31.191,0-56.566-25.375-56.566-56.559c0-31.192,25.375-56.566,56.566-56.566
	C626.466,186.142,651.841,211.516,651.841,242.709z"/>
<path fill="#426AB3" d="M391.218,239.156c0,65.087,18.395,128.919,59.622,206.945c14.438,27.327,31.597,56.306,52.458,88.592
	c23.018,35.612,37.035,50.614,37.625,51.221c14.421,15.264,33.734,23.69,54.386,23.75c0.076,0,0.135,0,0.193,0
	c20.576,0,39.865-8.335,54.32-23.473c0.514-0.538,12.805-13.579,35.4-48.383c17.713-27.27,32.742-52.088,45.893-75.854
	c47.178-85.148,68.227-153.864,68.227-222.815c-0.01-106.802-93.451-197.044-204.067-197.044
	C484.659,42.094,391.218,132.337,391.218,239.156z M772.535,239.156c0,65.027-19.396,127.773-64.85,209.824
	c-12.848,23.211-27.547,47.508-44.924,74.238c-20.963,32.277-32.244,44.393-32.346,44.477c-9.32,9.791-21.729,15.18-34.905,15.18
	c-0.051,0-0.093,0-0.126,0c-13.227-0.034-25.652-5.481-34.947-15.322c-0.126-0.152-13.159-14.194-34.618-47.398
	c-20.441-31.63-37.212-59.943-51.271-86.563c-39.098-73.977-56.516-133.944-56.516-194.435c0-92.288,81.175-170.264,177.251-170.264
	C691.361,68.892,772.535,146.868,772.535,239.156z"/>
</svg>
