<?xml version="1.0" encoding="utf-8"?>
<!-- Generator: Adobe Illustrator 16.0.3, SVG Export Plug-In . SVG Version: 6.00 Build 0)  -->
<!DOCTYPE svg PUBLIC "-//W3C//DTD SVG 1.1//EN" "http://www.w3.org/Graphics/SVG/1.1/DTD/svg11.dtd">
<svg version="1.1" id="Layer_1" xmlns="http://www.w3.org/2000/svg" xmlns:xlink="http://www.w3.org/1999/xlink" x="0px" y="0px"
	 width="283.46px" height="283.46px" viewBox="0 0 283.46 283.46" enable-background="new 0 0 283.46 283.46" xml:space="preserve">
<path fill="#FFFFFF" d="M100.524,59.318c0,22.767,18.439,41.207,41.206,41.207s41.207-18.44,41.207-41.207
	c0-22.766-18.439-41.205-41.207-41.205C118.963,18.113,100.524,36.552,100.524,59.318z M100.524,146.88v92.713H87.647
	c-7.107,0-12.876,5.77-12.876,12.879c0,7.107,5.77,12.875,12.876,12.875h108.165c7.107,0,12.879-5.768,12.879-12.875
	c0-7.109-5.771-12.879-12.879-12.879h-12.875V132.459c0-6.283-5.052-11.333-11.334-11.333H87.647
	c-7.107,0-12.876,5.77-12.876,12.876c0,7.108,5.77,12.877,12.876,12.877H100.524L100.524,146.88z"/>
</svg>
