<?xml version="1.0" encoding="utf-8"?>
<!-- Generator: Adobe Illustrator 16.0.3, SVG Export Plug-In . SVG Version: 6.00 Build 0)  -->
<!DOCTYPE svg PUBLIC "-//W3C//DTD SVG 1.1//EN" "http://www.w3.org/Graphics/SVG/1.1/DTD/svg11.dtd">
<svg version="1.1" id="Layer_1" xmlns="http://www.w3.org/2000/svg" xmlns:xlink="http://www.w3.org/1999/xlink" x="0px" y="0px"
	 width="283.46px" height="283.46px" viewBox="0 0 283.46 283.46" enable-background="new 0 0 283.46 283.46" xml:space="preserve">
<path fill="#FFFFFF" d="M239.079,99.078c0,5.669-4.598,10.267-10.267,10.267H98.777c-5.669,0-10.267-4.595-10.267-10.267l0,0
	c0-5.669,4.598-10.267,10.267-10.267h130.035C234.481,88.811,239.079,93.409,239.079,99.078L239.079,99.078z"/>
<circle fill="#FFFFFF" cx="57.712" cy="99.078" r="17.11"/>
<path fill="#FFFFFF" d="M239.079,145.273c0,5.67-4.598,10.264-10.267,10.264H98.777c-5.669,0-10.267-4.594-10.267-10.264l0,0
	c0-5.669,4.598-10.267,10.267-10.267h130.035C234.481,135.006,239.079,139.604,239.079,145.273L239.079,145.273z"/>
<circle fill="#FFFFFF" cx="57.712" cy="145.273" r="17.109"/>
<path fill="#FFFFFF" d="M239.079,191.468c0,5.67-4.598,10.265-10.267,10.265H98.777c-5.669,0-10.267-4.595-10.267-10.265l0,0
	c0-5.669,4.598-10.264,10.267-10.264h130.035C234.481,181.205,239.079,185.799,239.079,191.468L239.079,191.468z"/>
<circle fill="#FFFFFF" cx="57.712" cy="191.468" r="17.109"/>
</svg>
