<?xml version="1.0" encoding="utf-8"?>
<!-- Generator: Adobe Illustrator 16.0.3, SVG Export Plug-In . SVG Version: 6.00 Build 0)  -->
<!DOCTYPE svg PUBLIC "-//W3C//DTD SVG 1.1//EN" "http://www.w3.org/Graphics/SVG/1.1/DTD/svg11.dtd">
<svg version="1.1" id="Layer_1" xmlns="http://www.w3.org/2000/svg" xmlns:xlink="http://www.w3.org/1999/xlink" x="0px" y="0px"
	 width="100px" height="100px" viewBox="-82.17 -407.5 100 100" enable-background="new -82.17 -407.5 100 100"
	 xml:space="preserve">
<path fill="#EF4823" d="M-82.17-457.5c-27.57,0-50,22.43-50,50c0,27.569,22.43,50,50,50s50-22.431,50-50
	C-32.17-435.07-54.6-457.5-82.17-457.5z M-78.138-365.763v-13.511h-8.064v13.512c-19.911-1.909-35.797-17.795-37.705-37.706h13.512
	v-8.064h-13.512c1.909-19.911,17.794-35.796,37.705-37.705v13.511h8.064v-13.511c19.911,1.908,35.797,17.793,37.705,37.705h-13.511
	v8.064h13.512C-42.341-383.557-58.227-367.671-78.138-365.763z M-67.085-407.5c0,8.332-6.753,15.085-15.085,15.085
	s-15.085-6.753-15.085-15.085c0-8.331,6.753-15.085,15.085-15.085S-67.085-415.831-67.085-407.5z"/>
</svg>
