<?xml version="1.0" encoding="utf-8"?>
<!-- Generator: Adobe Illustrator 16.0.3, SVG Export Plug-In . SVG Version: 6.00 Build 0)  -->
<!DOCTYPE svg PUBLIC "-//W3C//DTD SVG 1.1//EN" "http://www.w3.org/Graphics/SVG/1.1/DTD/svg11.dtd">
<svg version="1.1" id="Layer_1" xmlns="http://www.w3.org/2000/svg" xmlns:xlink="http://www.w3.org/1999/xlink" x="0px" y="0px"
	 width="283.46px" height="283.46px" viewBox="0 0 283.46 283.46" enable-background="new 0 0 283.46 283.46" xml:space="preserve">
<g>
	<path fill="#FFFFFF" d="M179.052,53.326l-77.863,28.789L19.783,52.027v162.045l79.546,29.394l0.62,0.236l1.904-0.015l77.184-28.316
		l80.801,29.867V83.208L179.052,53.326z M97.484,235.183l-70.57-26.087V62.258l70.57,26.087V235.183z M104.614,88.227l70.866-25.984
		v146.853l-70.866,26.19V88.227z M252.708,235.005l-70.097-25.924V62.258l70.097,25.91V235.005z"/>
	<path fill="#FFFFFF" d="M26.072,185.563c-1.993-0.296-3.218-0.62-3.218-0.62l1.535-5.713c0.074,0.029,1.034,0.266,2.554,0.502
		L26.072,185.563z"/>
	<path fill="#FFFFFF" d="M32.465,185.992l-0.074-5.906c1.86-0.015,3.676-0.207,5.345-0.561l1.21,5.787
		C36.894,185.74,34.709,185.961,32.465,185.992z M45.28,183.171l-2.598-5.301c1.55-0.768,2.938-1.727,4.148-2.863l4.06,4.281
		C49.251,180.824,47.361,182.138,45.28,183.171z M55.068,173.929l-5.138-2.938c0.827-1.433,1.506-3.071,2.038-4.843l5.669,1.683
		C56.973,170.046,56.116,172.099,55.068,173.929z M231.669,172.291c-0.709-1.742-1.447-3.661-2.17-5.699l5.565-1.979
		c0.694,1.949,1.388,3.78,2.067,5.463L231.669,172.291z M59.275,162.207l-5.595-1.875c0.679-2.052,1.447-3.986,2.273-5.816
		l5.389,2.422C60.589,158.589,59.896,160.362,59.275,162.207z M227.536,160.908c-0.62-1.904-1.24-3.824-1.845-5.743l5.639-1.741
		c0.591,1.859,1.196,3.75,1.816,5.624L227.536,160.908z M154.042,158.531l-1.992-5.566c1.49-0.531,3.232-1.313,5.152-2.258
		l2.613,5.285C157.66,157.054,155.71,157.925,154.042,158.531z M145.967,158.398c-1.137-0.62-3.13-1.299-5.064-1.934l1.875-5.61
		c2.672,0.9,4.547,1.55,6.037,2.362L145.967,158.398z M135.175,154.47c-1.786-0.664-3.706-1.446-5.699-2.361l2.48-5.359
		c1.86,0.856,3.632,1.58,5.285,2.199L135.175,154.47z M165.218,153.187l-2.819-5.183c1.669-0.915,3.41-1.875,5.167-2.879
		l2.908,5.138C168.688,151.267,166.917,152.271,165.218,153.187z M63.911,151.917l-5.108-2.969c1.107-1.889,2.259-3.646,3.44-5.256
		l4.754,3.5C65.934,148.639,64.9,150.205,63.911,151.917z M223.933,149.437l-1.683-5.744l5.669-1.653l1.684,5.713L223.933,149.437z
		 M123.94,149.23c-1.698-1.004-3.455-2.126-5.226-3.396l3.439-4.798c1.609,1.167,3.204,2.185,4.754,3.085L123.94,149.23z
		 M175.671,147.296l-2.938-5.124l5.211-2.953l2.908,5.138L175.671,147.296z M70.57,142.852l-4.326-4.016
		c1.461-1.565,3.012-3.042,4.606-4.37l3.765,4.547C73.301,140.121,71.928,141.391,70.57,142.852z M113.827,141.952
		c-0.561-0.487-1.122-0.989-1.668-1.506c-0.916-0.842-1.816-1.609-2.702-2.318l3.646-4.636c1.004,0.797,2.037,1.668,3.085,2.643
		c0.502,0.472,1.004,0.93,1.506,1.373L113.827,141.952z M186.021,141.494l-2.806-5.197c2.022-1.092,3.868-2.037,5.522-2.775
		l2.436,5.374C189.638,139.589,187.896,140.49,186.021,141.494z M220.67,138.541c-0.575-1.137-1.521-1.978-2.894-2.598l2.422-5.389
		c2.598,1.181,4.531,2.953,5.728,5.285L220.67,138.541z M196.34,137.065l-1.55-5.699c1.859-0.502,3.896-0.989,6.008-1.402
		l1.123,5.787C199.958,136.149,198.068,136.592,196.34,137.065z M79.074,135.898l-2.923-5.138c1.653-0.93,4.075-2.097,6.26-2.303
		l1.196,5.802l-0.665,0.088C82.292,134.407,80.919,134.85,79.074,135.898z M104.924,135.131c-1.609-0.871-3.263-1.521-4.887-1.964
		l1.536-5.699c2.067,0.561,4.134,1.388,6.142,2.466L104.924,135.131z M207.516,134.939l-0.531-5.876
		c1.329-0.118,2.687-0.148,3.927-0.177c0.856,0,1.713,0.029,2.525,0.088l-0.443,5.891c-0.709-0.059-1.447-0.044-2.156-0.074
		C209.746,134.776,208.638,134.835,207.516,134.939z M89.57,132.99l-1.137-5.802c2.259-0.428,4.222-0.635,6.201-0.635l0.295,2.953
		l-0.089,2.953C93.04,132.444,91.431,132.621,89.57,132.99z"/>
	<path fill="#FFFFFF" d="M236.585,181.222c-0.709-0.693-1.417-1.697-2.17-3.041l5.152-2.894c0.65,1.166,1.049,1.609,1.195,1.757
		L236.585,181.222z"/>
	<path fill="#FFFFFF" d="M248.146,172.365l-4.179-4.179l-7.249,7.264l-7.264-7.264l-4.192,4.179l7.278,7.264l-7.278,7.264
		l4.192,4.178l7.264-7.264l7.249,7.264l4.179-4.178l-7.264-7.264L248.146,172.365z"/>
</g>
</svg>
