<?xml version="1.0" encoding="utf-8"?>
<!-- Generator: Adobe Illustrator 16.0.3, SVG Export Plug-In . SVG Version: 6.00 Build 0)  -->
<!DOCTYPE svg PUBLIC "-//W3C//DTD SVG 1.1//EN" "http://www.w3.org/Graphics/SVG/1.1/DTD/svg11.dtd">
<svg version="1.1" id="Layer_1" xmlns:sketch="http://www.bohemiancoding.com/sketch/ns"
	 xmlns="http://www.w3.org/2000/svg" xmlns:xlink="http://www.w3.org/1999/xlink" x="0px" y="0px" width="529.134px"
	 height="231.5px" viewBox="29.764 301.889 529.134 231.5" enable-background="new 29.764 301.889 529.134 231.5"
	 xml:space="preserve">
<title>menu</title>
<desc>Created with Sketch.</desc>
<g sketch:type="MSPage">
	<g sketch:type="MSArtboardGroup">
		<path sketch:type="MSShapeGroup" fill="#FFFFFF" d="M534.097,533.39H54.565c-14.063,0-24.801-10.748-24.801-24.801
			c0-14.063,10.737-24.812,24.801-24.812h479.532c14.051,0,24.801,10.748,24.801,24.812
			C558.898,522.642,548.148,533.39,534.097,533.39L534.097,533.39z M534.097,442.446H54.565c-14.063,0-24.801-10.749-24.801-24.813
			c0-14.052,10.737-24.801,24.801-24.801h479.532c14.051,0,24.801,10.749,24.801,24.801
			C558.898,431.697,548.148,442.446,534.097,442.446L534.097,442.446z M534.097,351.491H54.565
			c-14.063,0-24.801-10.737-24.801-24.801c0-14.052,10.737-24.801,24.801-24.801h479.532c14.051,0,24.801,10.749,24.801,24.801
			C558.898,340.753,548.148,351.491,534.097,351.491L534.097,351.491z"/>
	</g>
</g>
</svg>
