<?xml version="1.0" encoding="utf-8"?>
<!-- Generator: Adobe Illustrator 16.0.3, SVG Export Plug-In . SVG Version: 6.00 Build 0)  -->
<!DOCTYPE svg PUBLIC "-//W3C//DTD SVG 1.1//EN" "http://www.w3.org/Graphics/SVG/1.1/DTD/svg11.dtd">
<svg version="1.1" id="Layer_1" xmlns="http://www.w3.org/2000/svg" xmlns:xlink="http://www.w3.org/1999/xlink" x="0px" y="0px"
	 width="100px" height="100px" viewBox="0 0 100 100" enable-background="new 0 0 100 100" xml:space="preserve">
<path fill="#426AB3" d="M50,0C22.43,0,0,22.43,0,50c0,27.568,22.43,50,50,50s50-22.432,50-50C100,22.43,77.57,0,50,0z
	 M54.031,91.736v-13.51h-8.063v13.512C26.057,89.829,10.171,73.943,8.263,54.031h13.513v-8.063H8.263
	c1.909-19.911,17.794-35.796,37.705-37.705v13.511h8.063V8.263c19.912,1.908,35.798,17.793,37.705,37.705h-13.51v8.063h13.512
	C89.829,73.943,73.943,89.829,54.031,91.736z"/>
</svg>
