<?xml version="1.0" encoding="utf-8"?>
<!-- Generator: Adobe Illustrator 16.0.3, SVG Export Plug-In . SVG Version: 6.00 Build 0)  -->
<!DOCTYPE svg PUBLIC "-//W3C//DTD SVG 1.1//EN" "http://www.w3.org/Graphics/SVG/1.1/DTD/svg11.dtd">
<svg version="1.1" id="Layer_1" xmlns="http://www.w3.org/2000/svg" xmlns:xlink="http://www.w3.org/1999/xlink" x="0px" y="0px"
	 width="100px" height="100px" viewBox="174.33 0 100 100" enable-background="new 174.33 0 100 100" xml:space="preserve">
<path fill="#FFFFFF" d="M224.33,0c-27.57,0-50,22.43-50,50c0,27.569,22.43,50,50,50s50-22.431,50-50C274.33,22.43,251.9,0,224.33,0z
	 M228.362,91.737V78.226h-8.064v13.512c-19.911-1.909-35.797-17.795-37.705-37.706h13.512v-8.064h-13.512
	c1.909-19.911,17.794-35.796,37.705-37.705v13.511h8.064V8.263c19.911,1.908,35.797,17.793,37.705,37.705h-13.511v8.064h13.512
	C264.159,73.943,248.273,89.829,228.362,91.737z"/>
</svg>
