<?xml version="1.0" encoding="utf-8"?>
<!-- Generator: Adobe Illustrator 16.0.3, SVG Export Plug-In . SVG Version: 6.00 Build 0)  -->
<!DOCTYPE svg PUBLIC "-//W3C//DTD SVG 1.1//EN" "http://www.w3.org/Graphics/SVG/1.1/DTD/svg11.dtd">
<svg version="1.1" id="Layer_1" xmlns="http://www.w3.org/2000/svg" xmlns:xlink="http://www.w3.org/1999/xlink" x="0px" y="0px"
	 width="283.46px" height="283.46px" viewBox="0 0 283.46 283.46" enable-background="new 0 0 283.46 283.46" xml:space="preserve">
<g>
	<path fill="#FFFFFF" d="M179.013,146.625c27.723,5.981,47.111,19.668,47.111,35.605c0,21.425-35.082,38.805-78.356,38.805
		c-43.264,0-78.347-17.379-78.347-38.805c0-15.785,19.02-29.371,46.31-35.436c3.392-0.747-1.527-6.892-5.523-6.063
		c-35.277,7.289-60.076,24.551-60.076,44.688c0,26.74,43.714,48.418,97.637,48.418c53.923,0,97.638-21.678,97.638-48.418
		c0-20.47-25.633-37.957-61.833-45.048C180.023,139.677,175.644,145.894,179.013,146.625z"/>
	<path fill="#FFFFFF" d="M171.608,159.102c9.173,3.099,15.109,8.055,15.109,13.667c0,9.406-16.731,17.038-37.382,17.038
		c-20.649,0-37.38-7.631-37.38-17.038c0-4.441,3.73-8.478,9.838-11.504c2.622-1.299-1.181-8.776-4.879-7.361
		c-12.32,4.73-20.294,12.217-20.294,20.65c0,14.316,22.903,25.92,51.148,25.92c28.254,0,51.156-11.604,51.156-25.92
		c0-9.308-9.686-17.452-24.236-22.012C171.553,151.561,168.986,158.21,171.608,159.102z"/>
	<g>
		<path fill="#FFFFFF" d="M170.22,110.117c0-4.1,0.063-8.199-0.018-12.298c-0.1-5.586-2.586-9.902-7.874-11.821
			c-9.694-3.505-19.605-3.478-29.309-0.063c-5.253,1.847-7.965,6.045-7.982,11.712c-0.036,8.307-0.045,16.631,0.054,24.938
			c0.054,5.199,1.874,9.821,4.802,14.118c1.37,2.009,2.631,4.315,3.09,6.667c1.504,7.641,2.703,15.344,4,23.029
			c-2.37,1.378-3.856,3.189-3.856,5.198c0,4.262,6.559,7.729,14.641,7.729c8.091,0,14.65-3.468,14.65-7.729
			c0-2.099-1.604-4.001-4.172-5.397c0.848-5.324,1.586-10.666,2.64-15.946c0.865-4.288,2.055-8.55,3.568-12.649
			c1.352-3.658,4.162-6.902,4.883-10.614c1.072-5.496,0.857-11.235,1.199-16.857C170.427,110.125,170.32,110.117,170.22,110.117z"/>
		<path fill="#FFFFFF" d="M147.237,79.214c10.479-0.117,18.173-7.929,18.109-18.389c-0.054-10.028-8.226-18.245-18.118-18.235
			c-9.992,0.018-18.434,8.442-18.479,18.443C128.704,71.096,137.083,79.331,147.237,79.214z"/>
	</g>
</g>
</svg>
