<svg xmlns="http://www.w3.org/2000/svg" xmlns:xlink="http://www.w3.org/1999/xlink" xmlns:sketch="http://www.bohemiancoding.com/sketch/ns" viewBox="0 0 100 100" version="1.1" x="0px" y="0px"><title>menu</title><desc>Created with Sketch.</desc><g stroke="none" stroke-width="1" fill="none" fill-rule="evenodd" sketch:type="MSPage"><g sketch:type="MSArtboardGroup" fill="#000000"><path d="M89.721875,68.889375 L9.16625,68.889375 C6.80375,68.889375 5,67.08375 5,64.723125 C5,62.360625 6.80375,60.555 9.16625,60.555 L89.721875,60.555 C92.0825,60.555 93.888125,62.360625 93.888125,64.723125 C93.888125,67.08375 92.0825,68.889375 89.721875,68.889375 L89.721875,68.889375 Z M89.721875,53.611875 L9.16625,53.611875 C6.80375,53.611875 5,51.80625 5,49.44375 C5,47.083125 6.80375,45.2775 9.16625,45.2775 L89.721875,45.2775 C92.0825,45.2775 93.888125,47.083125 93.888125,49.44375 C93.888125,51.80625 92.0825,53.611875 89.721875,53.611875 L89.721875,53.611875 Z M89.721875,38.3325 L9.16625,38.3325 C6.80375,38.3325 5,36.52875 5,34.16625 C5,31.805625 6.80375,30 9.16625,30 L89.721875,30 C92.0825,30 93.888125,31.805625 93.888125,34.16625 C93.888125,36.52875 92.0825,38.3325 89.721875,38.3325 L89.721875,38.3325 Z" sketch:type="MSShapeGroup"></path></g></g></svg>