<?xml version="1.0" encoding="utf-8"?>
<!-- Generator: Adobe Illustrator 16.0.3, SVG Export Plug-In . SVG Version: 6.00 Build 0)  -->
<!DOCTYPE svg PUBLIC "-//W3C//DTD SVG 1.1//EN" "http://www.w3.org/Graphics/SVG/1.1/DTD/svg11.dtd">
<svg version="1.1" id="Layer_1" xmlns="http://www.w3.org/2000/svg" xmlns:xlink="http://www.w3.org/1999/xlink" x="0px" y="0px"
	 width="283.46px" height="283.46px" viewBox="0 0 283.46 283.46" enable-background="new 0 0 283.46 283.46" xml:space="preserve">
<g>
	<path fill="#FFFFFF" d="M141.73,19.275L141.73,19.275c-62.928,0-102.045,68.03-70.582,122.455l70.582,122.455l70.582-122.455
		C243.775,87.306,204.658,19.275,141.73,19.275z M141.73,141.73c-25.795,0-46.771-20.976-46.771-46.771s20.976-46.771,46.771-46.771
		s46.771,20.976,46.771,46.771S167.525,141.73,141.73,141.73z"/>
	<g>
		<path fill="#FFFFFF" d="M141.73,12.189c-36,0-68.03,22.11-81.92,54.991c-11.622,27.496-7.086,56.692,7.37,81.92
			c22.677,39.401,45.637,79.085,68.313,118.486c2.551,4.535,9.638,4.535,12.189,0c22.676-39.118,45.354-78.235,67.746-117.636
			c14.74-25.512,19.275-53.291,8.787-81.354C211.46,34.299,178.013,13.039,141.73,12.189c-9.071-0.284-9.071,13.889,0,14.173
			c38.268,0.851,70.015,28.913,74.267,67.18c2.552,22.96-7.937,41.668-18.991,60.377c-20.41,35.432-40.818,70.864-61.512,106.297
			c3.969,0,8.221,0,12.189,0c-20.41-35.433-40.819-70.865-61.511-106.297c-11.055-19.276-20.693-37.134-18.992-60.377
			c2.834-37.7,37.417-67.18,74.55-67.18C150.8,26.362,150.8,12.189,141.73,12.189z"/>
		<path fill="#FFFFFF" d="M141.73,134.644c-51.306-1.984-51.306-77.385,0-79.369c22.394-0.851,38.834,18.708,39.685,39.684
			C182.265,117.353,162.707,133.793,141.73,134.644c-9.071,0.283-9.071,14.457,0,14.172c30.047-1.133,52.724-23.81,53.857-53.857
			s-25.512-52.724-53.857-53.857c-30.047-1.134-52.724,25.512-53.857,53.857c-1.134,30.047,25.511,52.724,53.857,53.857
			C150.8,149.1,150.8,134.927,141.73,134.644z"/>
	</g>
</g>
</svg>
