<?xml version="1.0" encoding="utf-8"?>
<!-- Generator: Adobe Illustrator 16.0.3, SVG Export Plug-In . SVG Version: 6.00 Build 0)  -->
<!DOCTYPE svg PUBLIC "-//W3C//DTD SVG 1.1//EN" "http://www.w3.org/Graphics/SVG/1.1/DTD/svg11.dtd">
<svg version="1.1" id="Layer_1" xmlns="http://www.w3.org/2000/svg" xmlns:xlink="http://www.w3.org/1999/xlink" x="0px" y="0px"
	 width="283.46px" height="283.46px" viewBox="0 0 283.46 283.46" enable-background="new 0 0 283.46 283.46" xml:space="preserve">
<g>
	<path fill="#FFFFFF" d="M212.595,106.297C212.595,47.595,165,0,106.297,0S0,47.595,0,106.297s47.595,106.298,106.297,106.298
		S212.595,165,212.595,106.297z M106.297,186.021c-43.961,0-79.723-35.762-79.723-79.724c0-43.961,35.762-79.723,79.723-79.723
		c43.962,0,79.724,35.762,79.724,79.723C186.021,150.259,150.259,186.021,106.297,186.021z"/>
	<path fill="#FFFFFF" d="M275.675,238.097l-65.035-65.035c-9.688,15.069-22.508,27.89-37.578,37.578l65.035,65.035
		c10.381,10.38,27.215,10.38,37.578,0C286.055,265.312,286.055,248.478,275.675,238.097z"/>
</g>
</svg>
