<?xml version="1.0" encoding="utf-8"?>
<!-- Generator: Adobe Illustrator 16.0.3, SVG Export Plug-In . SVG Version: 6.00 Build 0)  -->
<!DOCTYPE svg PUBLIC "-//W3C//DTD SVG 1.1//EN" "http://www.w3.org/Graphics/SVG/1.1/DTD/svg11.dtd">
<svg version="1.1" id="Layer_1" xmlns="http://www.w3.org/2000/svg" xmlns:xlink="http://www.w3.org/1999/xlink" x="0px" y="0px"
	 width="283.46px" height="283.46px" viewBox="0 0 283.46 283.46" enable-background="new 0 0 283.46 283.46" xml:space="preserve">
<g>
	<path fill="#FFFFFF" d="M256.815,113.384h-12.473c-2.268-8.503-5.669-16.724-9.921-24.377l8.787-8.787
		c4.818-4.819,4.818-12.756,0-17.575l-22.677-22.677c-4.819-4.819-12.755-4.819-17.574,0l-8.788,8.788
		c-7.652-4.252-15.59-7.654-24.377-9.921V26.645c0.283-6.803-5.386-12.472-12.189-12.472h-31.747
		c-6.803,0-12.473,5.669-12.473,12.472v12.473c-8.503,2.268-16.724,5.669-24.377,9.921l-8.787-8.787
		c-4.819-4.819-12.756-4.819-17.575,0L39.968,62.928c-4.819,4.819-4.819,12.755,0,17.574l8.787,8.788
		c-4.251,7.653-7.653,15.59-9.921,24.377H26.645c-6.803-0.284-12.472,5.386-12.472,12.189v32.031
		c0,6.804,5.669,12.188,12.472,12.188h12.473c2.268,8.504,5.669,16.725,9.921,24.378l-8.787,8.787
		c-4.819,4.819-4.819,12.756,0,17.575l22.677,22.676c4.819,4.819,12.755,4.819,17.574,0l8.788-8.787
		c7.653,4.252,15.59,7.654,24.377,9.922v12.472c0,6.804,5.669,12.472,12.472,12.472h32.031c6.804,0,12.473-5.668,12.473-12.472
		v-12.472c8.503-2.268,16.724-5.67,24.378-9.922l8.787,8.787c4.818,4.819,12.756,4.819,17.574,0l22.677-22.676
		c4.819-4.819,4.819-12.756,0-17.575l-8.787-8.787c4.251-7.653,7.653-15.591,9.921-24.378h12.473
		c6.803,0,12.472-5.669,12.472-12.473v-31.747C269.287,119.053,263.618,113.384,256.815,113.384z M141.73,205.508
		c-35.149,0-63.778-28.63-63.778-63.778c0-35.149,28.629-63.778,63.778-63.778c35.148,0,63.778,28.629,63.778,63.778
		C205.508,176.878,176.878,205.508,141.73,205.508z"/>
</g>
</svg>
