<?xml version="1.0" encoding="utf-8"?>
<!-- Generator: Adobe Illustrator 16.0.3, SVG Export Plug-In . SVG Version: 6.00 Build 0)  -->
<!DOCTYPE svg PUBLIC "-//W3C//DTD SVG 1.1//EN" "http://www.w3.org/Graphics/SVG/1.1/DTD/svg11.dtd">
<svg version="1.1" id="Layer_1" xmlns="http://www.w3.org/2000/svg" xmlns:xlink="http://www.w3.org/1999/xlink" x="0px" y="0px"
	 width="570.675px" height="600.756px" viewBox="0 0 570.675 600.756" enable-background="new 0 0 570.675 600.756"
	 xml:space="preserve">
<path fill="#FFFFFF" d="M400.142,163.445c-28.498,0-51.617-23.109-51.617-51.625c0-28.522,23.119-51.615,51.617-51.615
	c28.516,0,51.633,23.102,51.633,51.615C451.775,140.334,428.658,163.445,400.142,163.445 M400.142,300.285
	c0,0,107.256-133.802,107.256-193.036c0-59.235-48.012-107.248-107.256-107.248c-59.227,0-107.24,48.013-107.24,107.248
	C292.902,166.493,400.142,300.285,400.142,300.285 M150.605,558.469l-111.5-45.942V193.18l111.5,45.917V558.469z M570.675,551.809
	V147.895l-40.352-21.484c-3.072,11.391-7.939,23.767-13.992,36.547l15.246,11.138v319.338l-111.5-45.908V302.778
	c-3.998,5.187-6.953,8.907-8.418,10.734l-11.518,14.346l-11.492-14.346c-1.363-1.718-4.059-5.086-7.66-9.75v159.825l-191.303,78.792
	V223.025l101.025-34.677c-6.363-12.216-11.904-24.255-16.08-35.663l-124.027,44.124L0,134.812v403.914l150.604,62.03
	l269.473-110.971v0.018L570.675,551.809z"/>
</svg>
