<?xml version="1.0" encoding="utf-8"?>
<!-- Generator: Adobe Illustrator 16.0.3, SVG Export Plug-In . SVG Version: 6.00 Build 0)  -->
<!DOCTYPE svg PUBLIC "-//W3C//DTD SVG 1.1//EN" "http://www.w3.org/Graphics/SVG/1.1/DTD/svg11.dtd">
<svg version="1.1" id="Layer_1" xmlns="http://www.w3.org/2000/svg" xmlns:xlink="http://www.w3.org/1999/xlink" x="0px" y="0px"
	 width="104.151px" height="36px" viewBox="0 0 104.151 36" enable-background="new 0 0 104.151 36" xml:space="preserve">
<g>
	<path fill="#FFFFFF" d="M46.813,9.356v2.254h1.083c0.964,0,1.022-0.205,1.022-0.762h0.332v1.972h-0.332
		c0-0.548-0.047-0.752-1.022-0.752h-1.083v2.37h1.034c1.17,0,1.735-0.088,1.813-0.935h0.331v1.394h-5.256v-0.352H45
		c0.711,0,0.769-0.225,0.769-0.799V10.05c0-0.515-0.037-0.8-0.769-0.8h-0.265V8.9h5.256v1.393H49.66
		c-0.067-0.827-0.604-0.937-1.813-0.937H46.813z"/>
	<path fill="#FFFFFF" d="M54.585,8.898l3.948,4.478h0.041v-3.375c0-0.624-0.186-0.751-0.73-0.751h-0.265V8.898h2.487V9.25h-0.293
		c-0.517,0-0.69,0.175-0.69,0.751v4.896h-0.55l-4.202-4.75h-0.037v3.589c0,0.566,0.115,0.809,0.692,0.809h0.293v0.353h-2.479v-0.353
		h0.282c0.615,0,0.704-0.224,0.704-0.809V9.563l-0.138-0.117c-0.167-0.137-0.244-0.195-0.585-0.195h-0.264V8.898H54.585z"/>
	<path fill="#FFFFFF" d="M67.523,10.715h-0.331c-0.069-0.813-0.87-1.465-1.951-1.465c-1.736,0-2.428,1.19-2.428,2.594
		c0,1.491,0.701,2.702,2.417,2.702c0.625,0,0.996-0.157,1.25-0.284v-0.905c0-0.741,0.027-0.927-0.704-0.927h-0.303v-0.352h2.946
		v0.352h-0.195c-0.701,0-0.701,0.255-0.701,0.857v1.346c-0.712,0.196-1.347,0.373-2.254,0.373c-2.771,0-3.589-1.835-3.589-3.104
		c0-1.364,0.927-3.109,3.511-3.109c0.8,0,1.56,0.165,2.332,0.389V10.715z"/>
	<path fill="#FFFFFF" d="M70.712,14.545h0.262c0.742,0,0.764-0.223,0.764-0.798v-3.695c0-0.576-0.061-0.802-0.733-0.802h-0.292
		V8.898h3.102V9.25H73.53c-0.701,0-0.751,0.226-0.751,0.802v4.387h0.996c1.257,0,1.744-0.136,1.823-0.937h0.33v1.396h-5.217V14.545z
		"/>
	<path fill="#FFFFFF" d="M81.116,9.25h-0.272c-0.712,0-0.761,0.234-0.761,0.8v3.697c0,0.711,0.166,0.799,0.761,0.799h0.272v0.35
		h-3.11v-0.35h0.273c0.71,0,0.761-0.226,0.761-0.799V10.05c0-0.673-0.137-0.8-0.761-0.8h-0.273V8.898h3.11V9.25z"/>
	<path fill="#FFFFFF" d="M83.788,13.131h0.331c0.157,1.073,0.918,1.415,1.6,1.415c0.634,0,1.277-0.254,1.277-0.907
		c0-0.409-0.272-0.721-1.257-1.316c-1.522-0.917-1.912-1.297-1.912-2.028c0-0.879,0.8-1.502,2.029-1.502
		c0.729,0,1.267,0.156,1.892,0.331v1.521h-0.333c-0.077-0.43-0.232-1.395-1.49-1.395c-0.625,0-1.111,0.244-1.111,0.751
		c0,0.44,0.331,0.653,1.131,1.16c1.618,1.024,2.037,1.396,2.037,2.184c0,0.742-0.576,1.659-2.204,1.659
		c-0.944,0-1.648-0.224-1.989-0.341V13.131z"/>
	<path fill="#FFFFFF" d="M95.802,11.591V10.05c0-0.604-0.067-0.8-0.759-0.8h-0.274V8.898h3.11V9.25h-0.273
		c-0.71,0-0.76,0.225-0.76,0.8v3.696c0,0.604,0.089,0.8,0.76,0.8h0.273v0.35h-3.11v-0.35h0.274c0.691,0,0.759-0.195,0.759-0.8
		v-1.678h-3.218v1.678c0,0.712,0.165,0.8,0.761,0.8h0.273v0.35h-3.11v-0.35h0.282c0.712,0,0.75-0.225,0.75-0.8V10.05
		c0-0.673-0.126-0.8-0.75-0.8h-0.282V8.898h3.11V9.25h-0.273c-0.713,0-0.761,0.234-0.761,0.8v1.541H95.802z"/>
	<path fill="#FFFFFF" d="M50.031,23.586v-1.54c0-0.604-0.069-0.8-0.761-0.8h-0.273v-0.352h3.111v0.352h-0.274
		c-0.711,0-0.759,0.224-0.759,0.8v3.694c0,0.606,0.087,0.801,0.759,0.801h0.274v0.354h-3.111v-0.354h0.273
		c0.691,0,0.761-0.194,0.761-0.801v-1.677h-3.219v1.677c0,0.713,0.165,0.801,0.76,0.801h0.272v0.354h-3.109v-0.354h0.282
		c0.712,0,0.751-0.224,0.751-0.801v-3.694c0-0.674-0.127-0.8-0.751-0.8h-0.282v-0.352h3.109v0.352h-0.272
		c-0.711,0-0.76,0.233-0.76,0.8v1.54H50.031z"/>
	<path fill="#FFFFFF" d="M56.342,21.353v2.254h1.08c0.968,0,1.024-0.206,1.024-0.762h0.332v1.971h-0.332
		c0-0.547-0.047-0.752-1.024-0.752h-1.08v2.37h1.032c1.171,0,1.738-0.087,1.813-0.935h0.332v1.394h-5.256v-0.352h0.265
		c0.711,0,0.77-0.224,0.77-0.799v-3.696c0-0.517-0.039-0.8-0.77-0.8h-0.265v-0.35h5.256v1.392h-0.332
		c-0.066-0.828-0.604-0.936-1.813-0.936H56.342z"/>
	<path fill="#FFFFFF" d="M63.66,25.799c0,0.666,0.265,0.742,0.762,0.742h0.272v0.352h-3.11v-0.352h0.272
		c0.518,0,0.759-0.076,0.759-0.73v-3.764c0-0.538,0-0.8-0.759-0.8h-0.272v-0.353h2.848c1.121,0,2.827,0.02,2.827,1.64
		c0,0.993-0.684,1.521-1.657,1.617v0.04c0.138,0.125,0.301,0.361,0.389,0.486l0.888,1.221c0.44,0.594,0.546,0.633,0.899,0.643v0.352
		h-0.431c-0.731,0-1.093-0.137-1.532-0.762l-1.022-1.453c-0.323-0.447-0.488-0.477-0.724-0.477H63.66V25.799z M63.66,23.742h0.82
		c1.121,0,1.667-0.399,1.667-1.198c0-0.81-0.536-1.19-1.667-1.19h-0.82V23.742z"/>
	<path fill="#FFFFFF" d="M73.211,21.246h-0.274c-0.71,0-0.759,0.234-0.759,0.8v3.694c0,0.714,0.165,0.801,0.759,0.801h0.274v0.352
		h-3.11v-0.352h0.271c0.712,0,0.761-0.224,0.761-0.801v-3.694c0-0.673-0.136-0.8-0.761-0.8h-0.271v-0.35h3.11V21.246z"/>
	<path fill="#FFFFFF" d="M81.206,22.288h-0.333c-0.067-0.713-0.39-0.936-1.687-0.936h-0.302v4.39c0,0.645,0.097,0.799,0.761,0.799
		h0.272v0.352h-3.11v-0.352h0.273c0.731,0,0.76-0.244,0.76-0.799v-4.39h-0.303c-1.218,0-1.618,0.223-1.677,0.936h-0.332v-1.394
		h5.677V22.288z"/>
	<path fill="#FFFFFF" d="M89.441,26.893h-2.859v-0.352h0.188c0.213,0,0.633-0.029,0.633-0.351c0-0.165-0.108-0.448-0.137-0.517
		l-0.458-1.152h-2.186l-0.369,1.044c-0.157,0.44-0.185,0.528-0.185,0.664c0,0.243,0.31,0.312,0.614,0.312h0.214v0.352h-2.301v-0.352
		h0.155c0.507,0,0.653-0.117,0.984-1.033l1.646-4.613h0.968l1.999,4.72c0.312,0.73,0.479,0.927,0.935,0.927h0.157V26.893z
		 M86.624,24.063l-0.928-2.341h-0.098l-0.81,2.341H86.624z"/>
	<path fill="#FFFFFF" d="M96.672,22.709h-0.33c-0.069-0.81-0.87-1.463-1.952-1.463c-1.737,0-2.428,1.189-2.428,2.594
		c0,1.49,0.702,2.701,2.419,2.701c0.623,0,0.994-0.156,1.247-0.282V25.35c0-0.738,0.031-0.923-0.702-0.923h-0.303v-0.354h2.945
		v0.354h-0.194c-0.702,0-0.702,0.253-0.702,0.858v1.345C95.96,26.824,95.326,27,94.42,27c-2.771,0-3.59-1.833-3.59-3.102
		c0-1.363,0.927-3.11,3.51-3.11c0.8,0,1.563,0.164,2.332,0.389V22.709z"/>
	<path fill="#FFFFFF" d="M100.972,21.353v2.254h1.083c0.967,0,1.023-0.206,1.023-0.762h0.332v1.971h-0.332
		c0-0.547-0.048-0.752-1.023-0.752h-1.083v2.37h1.034c1.169,0,1.736-0.087,1.814-0.935h0.331v1.394h-5.255v-0.352h0.263
		c0.711,0,0.77-0.224,0.77-0.799v-3.696c0-0.517-0.041-0.8-0.77-0.8h-0.263v-0.35h5.255v1.392h-0.331
		c-0.07-0.828-0.604-0.936-1.814-0.936H100.972z"/>
	<path fill="#FFFFFF" d="M25.665,25.815H10.128V10.184h15.537V25.815z M35.791,10.145V4.961h-4.933V0h-5.152v4.729H20.72V0.53h-5.65
		v4.199h-4.983V0H4.93v4.961H0v5.184h4.702v5.011H0.527v5.686h4.175v5.015H0v5.187h4.93V36h5.156v-4.73h4.983v4.2h5.65v-4.2h4.986
		V36h5.152v-4.958h4.933v-5.187h-4.703v-5.015h4.177v-5.686h-4.177v-5.011H35.791z"/>
</g>
</svg>
